<svg width="500" height="500" viewBox="0 0 500 500" fill="none" xmlns="http://www.w3.org/2000/svg">
<rect width="500" height="500" fill="black"/>
<path d="M235.75 359H168.42V140.818H238.733C259.898 140.818 278.009 145.186 293.065 153.922C308.122 162.587 319.663 175.051 327.689 191.315C335.714 207.509 339.727 226.898 339.727 249.483C339.727 272.21 335.679 291.777 327.582 308.183C319.486 324.518 307.696 337.089 292.213 345.896C276.73 354.632 257.909 359 235.75 359ZM194.841 335.562H234.045C252.085 335.562 267.036 332.082 278.896 325.122C290.757 318.162 299.599 308.254 305.423 295.399C311.247 282.544 314.159 267.239 314.159 249.483C314.159 231.869 311.283 216.706 305.53 203.993C299.777 191.209 291.183 181.408 279.749 174.589C268.314 167.7 254.074 164.256 237.028 164.256H194.841V335.562Z" fill="white"/>
</svg>
